# AST/ASF file generated using VICON BodyLanguage
# -----------------------------------------------
:version 1.10
:name VICON
:units
  mass 1.0
  length 0.45
  angle deg
:documentation
   .ast/.asf automatically generated from VICON data using
   VICON BodyBuilder and BodyLanguage model FoxedUp or BRILLIANT.MOD
:root
   order TX TY TZ RX RY RZ
   axis XYZ
   position 0 0 0  
   orientation 0 0 0 
:bonedata
  begin
     id 1 
     name lhipjoint
     direction 0.714689 -0.624256 0.315473 
     length 2.45343 
     axis 0 0 0  XYZ
  end
  begin
     id 2 
     name lfemur
     direction 0.34202 -0.939693 0  
     length 6.59069  
     axis 0 0 20  XYZ
    dof rx ry rz
    limits (-160.0 20.0)
           (-70.0 70.0)
           (-60.0 70.0)
  end
  begin
     id 3 
     name ltibia
     direction 0.34202 -0.939693 0   
     length 6.73476   
     axis 0 0 20   XYZ
    dof rx
    limits (-10.0 170.0)
  end
  begin
     id 4 
     name lfoot
     direction 0.0718085 -0.197292 0.977711   
     length 1.52607   
     axis -90 7.62852e-016 20   XYZ
    dof rx rz
    limits (-45.0 90.0)
           (-70.0 20.0)
  end
  begin
     id 5 
     name ltoes
     direction 1.53553e-011 -4.22024e-011 1   
     length 0.777832   
     axis -90 7.62852e-016 20   XYZ
    dof rx
    limits (-90.0 20.0)
  end
  begin
     id 6 
     name rhipjoint
     direction -0.727419 -0.612432 0.309497   
     length 2.50079  
     axis 0 0 0  XYZ 
  end
  begin
     id 7 
     name rfemur
     direction -0.34202 -0.939693 0   
     length 6.51665   
     axis 0 0 -20   XYZ
    dof rx ry rz
    limits (-160.0 20.0)
           (-70.0 70.0)
           (-70.0 60.0)
  end
  begin
     id 8 
     name rtibia
     direction -0.34202 -0.939693 0   
     length 6.48919   
     axis 0 0 -20   XYZ
    dof rx
    limits (-10.0 170.0)
 end
 begin
     id 9 
     name rfoot
     direction -0.112205 -0.308282 0.944655   
     length 1.68717  
     axis -90 -7.62852e-016 -20   XYZ
    dof rx rz
    limits (-45.0 90.0)
           (-20.0 70.0)
  end
  begin
     id 10 
     name rtoes
     direction -1.53583e-011 -4.21993e-011 1   
     length 0.846859   
     axis -90 -7.62852e-016 -20   XYZ
    dof rx
    limits (-90.0 20.0)
  end
  begin
     id 11 
     name lowerback
     direction -0.00119603 0.996364 -0.0851956   
     length 1.67242   
     axis 0 0 0   XYZ
    dof rx ry rz
    limits (-20.0 45.0)
           (-30.0 30.0)
           (-30.0 30.0)
  end
  begin
     id 12 
     name upperback
     direction -0.00531001 0.998318 0.0577248   
     length 1.64819   
     axis 0 0 0   XYZ
    dof rx ry rz
    limits (-20.0 45.0)
           (-30.0 30.0)
           (-30.0 30.0)
  end
  begin
     id 13 
     name thorax
     direction -0.00653676 0.995132 0.0983291   
     length 1.67429   
     axis 0 0 0   XYZ
    dof rx ry rz
    limits (-20.0 45.0)
           (-30.0 30.0)
           (-30.0 30.0)
  end
  begin
     id 14 
     name lowerneck
     direction 0.0141424 0.999886 0.00525412   
     length 1.59623   
     axis 0 0 0   XYZ
    dof rx ry rz
    limits (-20.0 45.0)
           (-30.0 30.0)
           (-30.0 30.0)
  end
  begin
     id 15 
     name upperneck
     direction -0.0640064 0.987178 -0.146232   
     length 1.59576   
     axis 0 0 0   XYZ
    dof rx ry rz
    limits (-20.0 45.0)
           (-30.0 30.0)
           (-30.0 30.0)
  end
  begin
     id 16
     name head
     direction -0.0222942 0.998496 -0.0500859  
     length 1.60959  
     axis 0 0 0   XYZ
    dof rx ry rz
    limits (-20.0 45.0)
           (-30.0 30.0)
           (-30.0 30.0)
  end
  begin
     id 17 
     name lclavicle
     direction 0.908549 0.392612 0.142806  
     length 2.80649  
     axis 0 0 0   XYZ
    dof ry rz
    limits (-20.0 10.0)
           (0.0 20.0)
  end
  begin
     id 18 
     name lhumerus
     direction 1 -4.48968e-011 1.08832e-028   
     length 4.2884   
     axis -180 -30 -90   XYZ
    dof rx ry rz
    limits (-60.0 90.0)
           (-90.0 90.0)
           (-90.0 90.0)
  end
  begin
     id 19
     name lradius
     direction 1 -4.48952e-011 -3.02642e-028   
     length 3.06552   
     axis -180 -30 -90   XYZ
    dof rx
    limits (-10.0 170.0)
  end
  begin
     id 20
     name lwrist
     direction 1 -4.49014e-011 1.58672e-027   
     length 1.53276   
     axis -1.65735e-015 90 90   XYZ
    dof ry
    limits (-180.0 0.0)
 end
  begin
     id 21 
     name lhand
     direction 1 -4.48928e-011 3.17344e-027   
     length 0.753045   
     axis -2.02492e-015 90 90   XYZ
    dof rx rz
    limits (-90.0 90.0)
           (-45.0 45.0)
  end
  begin
     id 22 
     name lfingers
     direction 1 -4.48958e-011 6.34687e-027   
     length 0.607124   
     axis -4.04985e-015 90 90   XYZ
    dof rx
    limits (0.0 90.0)
  end
  begin
     id 23
     name lthumb
     direction 0.707107 -6.34905e-011 0.707107   
     length 0.871712   
     axis -90 45 2.85299e-015   XYZ
    dof rx rz
    limits (-45.0 45.0)
           (-45.0 45.0)
  end
  begin
     id 24 
     name rclavicle
     direction -0.885098 0.45949 0.0739604   
     length 2.9478  
     axis 0 0 0   XYZ 
    dof ry rz
    limits (-10.0 20.0)
           (-20.0 0.0)
  end
  begin
     id 25 
     name rhumerus
     direction -1 -4.4898e-011 -2.61739e-027  
     length 4.52172   
     axis -180 30 90   XYZ
    dof rx ry rz
    limits (-90.0 60.0)
           (-90.0 90.0)
           (-90.0 90.0)
  end
  begin
     id 26 
     name rradius
     direction -1 -4.48945e-011 9.02552e-028   
     length 2.8914   
     axis -180 30 90   XYZ
    dof rx
    limits (-10.0 170.0)
  end
  begin
     id 27 
     name rwrist
     direction -1 -4.49018e-011 1.58672e-027   
     length 1.4457   
     axis -1.65735e-015 -90 -90   XYZ
    dof ry
    limits (-180.0 0.0)
  end
  begin
     id 28
     name rhand
     direction -1 -4.48825e-011 3.17344e-027   
     length 0.680541   
     axis -2.02492e-015 -90 -90   XYZ
    dof rx rz
    limits (-90.0 90.0)
           (-45.0 45.0)
  end
  begin
     id 29
     name rfingers
     direction -1 -4.49067e-011 6.34687e-027   
     length 0.54867   
     axis -4.04985e-015 -90 -90   XYZ
    dof rx
    limits (0.0 90.0)
  end
  begin
     id 30
     name rthumb
     direction -0.707107 -6.34833e-011 0.707107   
     length 0.787783   
     axis -90 -45 -2.85299e-015   XYZ
    dof rx rz
    limits (-45.0 45.0)
           (-45.0 45.0)
  end
:hierarchy
  begin
    root lhipjoint rhipjoint lowerback
    lhipjoint lfemur
    lfemur ltibia
    ltibia lfoot
    lfoot ltoes
    rhipjoint rfemur
    rfemur rtibia
    rtibia rfoot
    rfoot rtoes
    lowerback upperback
    upperback thorax
    thorax lowerneck lclavicle rclavicle
    lowerneck upperneck
    upperneck head
    lclavicle lhumerus
    lhumerus lradius
    lradius lwrist
    lwrist lhand lthumb
    lhand lfingers
    rclavicle rhumerus
    rhumerus rradius
    rradius rwrist
    rwrist rhand rthumb
    rhand rfingers
  end

#!OML:ASF E:\emotionWalksFemale\Project 1\Capture day 1\Session 1\Female1.ASF
:FULLY-SPECIFIED
:DEGREES
35
root 9.7247 14.5674 -15.07 1.06632 -3.59061 1.62142
lowerback 12.0014 0.807756 0.0865603
upperback -4.27761 1.05538 -0.419087
thorax -11.4011 0.476843 -0.732498
lowerneck -5.42679 1.43566 4.30566
upperneck 17.8101 2.85044 -7.99916
head 6.45171 1.05179 -3.07788
rclavicle 1.37969e-014 1.98785e-016
rhumerus 19.0174 14.157 -48.1089
rradius 71.3289
rwrist 25.9945
rhand -33.0507 -52.6373
rfingers 7.12502
rthumb -6.26317 -82.5247
lclavicle 1.37969e-014 1.98785e-016
lhumerus 19.357 -12.8944 45.1548
lradius 69.1325
lwrist -22.3422
lhand -44.1935 -66.6581
lfingers 7.12502
lthumb -17.0074 -37.3827
rfemur -23.9215 -2.0548 17.5099
rtibia 54.7226
rfoot -28.1939 -16.1859
rtoes -17.6441
lfemur -25.749 2.65175 -17.6808
ltibia 54.061
lfoot -30.402 -4.18127
ltoes -20.0127
36
root 9.72707 14.5685 -15.0708 1.08771 -3.56615 1.65447
lowerback 11.9771 0.785498 0.072134
upperback -4.31553 1.0209 -0.439199
thorax -11.4296 0.460398 -0.738846
lowerneck -5.35216 1.40831 4.31595
upperneck 17.8326 2.81852 -8.02174
head 6.4438 1.03653 -3.08988
rclavicle 9.58515e-015 -9.93923e-017
rhumerus 18.9563 14.1901 -48.2267
rradius 71.291
rwrist 26.061
rhand -33.2211 -52.8072
rfingers 7.12502
rthumb -6.42768 -82.6897
lclavicle 9.58515e-015 -9.93923e-017
lhumerus 19.1696 -12.8756 45.0695
lradius 69.262
lwrist -22.1228
lhand -44.0361 -66.5265
lfingers 7.12502
lthumb -16.856 -37.2381
rfemur -23.9453 -2.0477 17.4609
rtibia 54.7218
rfoot -28.2614 -16.1064
rtoes -17.4819
lfemur -25.7954 2.60557 -17.742
ltibia 54.0819
lfoot -30.3884 -3.92437
ltoes -21.1781
37
root 9.72882 14.5696 -15.071 1.08614 -3.58227 1.63667
lowerback 11.9963 0.789722 0.088331
upperback -4.35409 1.02885 -0.442919
thorax -11.4841 0.462443 -0.754648
lowerneck -5.45693 1.35286 4.44725
upperneck 17.9776 2.75912 -8.17288
head 6.50725 1.00061 -3.16732
rclavicle -1.23557e-014 -6.95746e-015
rhumerus 18.8341 14.1688 -48.3549
rradius 71.265
rwrist 26.1841
rhand -33.3434 -52.9732
rfingers 7.12502
rthumb -6.54573 -82.8521
lclavicle -1.23557e-014 -6.95746e-015
lhumerus 19.0258 -12.8311 45.0933
lradius 69.3857
lwrist -22.0128
lhand -43.9872 -66.4843
lfingers 7.12502
lthumb -16.8089 -37.1919
rfemur -23.9437 -1.99904 17.4705
rtibia 54.7128
rfoot -28.3213 -16.1207
rtoes -17.2792
lfemur -25.8213 2.61922 -17.7384
ltibia 54.0951
lfoot -30.3373 -3.7998
ltoes -21.5828
38
root 9.73127 14.5688 -15.0714 1.10369 -3.57255 1.61824
lowerback 11.9313 0.807633 0.108472
upperback -4.33339 1.05641 -0.442594
thorax -11.4211 0.474564 -0.770101
lowerneck -5.55638 1.31861 4.54734
upperneck 17.9936 2.71879 -8.28982
head 6.52937 0.976451 -3.22532
rclavicle -2.168e-015 9.93923e-017
rhumerus 18.7956 14.0227 -48.4103
rradius 71.278
rwrist 26.1949
rhand -33.329 -52.882
rfingers 7.12502
rthumb -6.53182 -82.7613
lclavicle -2.168e-015 9.93923e-017
lhumerus 19.0795 -12.7199 45.2379
lradius 69.4323
lwrist -22.0761
lhand -44.039 -66.4038
lfingers 7.12502
lthumb -16.8587 -37.1156
rfemur -23.9564 -2.00812 17.4819
rtibia 54.6975
rfoot -28.2951 -16.1398
rtoes -17.3404
lfemur -25.8453 2.58466 -17.7192
ltibia 54.0823
lfoot -30.2519 -3.95924
ltoes -20.6591
39
root 9.73444 14.5691 -15.0707 1.15504 -3.55557 1.6806
lowerback 11.7933 0.821081 0.036972
upperback -4.29446 1.06304 -0.441234
thorax -11.2958 0.483869 -0.726532
lowerneck -5.60404 1.3193 4.48372
upperneck 17.9302 2.71883 -8.26979
head 6.51685 0.973672 -3.2069
rclavicle 2.23633e-015 0
rhumerus 18.8346 13.9317 -48.37
rradius 71.2797
rwrist 26.1856
rhand -33.3176 -52.8143
rfingers 7.12502
rthumb -6.52079 -82.6939
lclavicle 2.23633e-015 0
lhumerus 19.0699 -12.5404 45.4161
lradius 69.4712
lwrist -22.2566
lhand -44.0648 -66.5843
lfingers 7.12502
lthumb -16.8835 -37.2982
rfemur -24.0074 -2.05849 17.4012
rtibia 54.6814
rfoot -28.1839 -16.2456
rtoes -17.8141
lfemur -25.8683 2.52529 -17.8033
ltibia 54.0531
lfoot -30.2569 -4.03903
ltoes -20.148
40
root 9.73667 14.5735 -15.0719 1.17397 -3.53641 1.72422
lowerback 11.7818 0.814139 -0.0122722
upperback -4.29619 1.04525 -0.444883
thorax -11.2919 0.478813 -0.698731
lowerneck -5.61906 1.34156 4.44513
upperneck 17.8823 2.74643 -8.24447
head 6.50559 0.986748 -3.18931
rclavicle 6.1499e-016 -6.55989e-015
rhumerus 18.8274 13.9207 -48.4041
rradius 71.2319
rwrist 26.1703
rhand -33.3609 -52.7109
rfingers 7.12502
rthumb -6.56264 -82.5892
lclavicle 6.1499e-016 -6.55989e-015
lhumerus 18.9912 -12.4037 45.5409
lradius 69.4882
lwrist -22.2727
lhand -44.0491 -67.0053
lfingers 7.12502
lthumb -16.8684 -37.718
rfemur -24.0269 -2.06557 17.3436
rtibia 54.6634
rfoot -28.1084 -16.3585
rtoes -17.925
lfemur -25.8805 2.48838 -17.8773
ltibia 54.027
lfoot -30.2764 -3.86122
ltoes -20.9389
41
root 9.73843 14.576 -15.0743 1.1584 -3.52593 1.69286
lowerback 11.8023 0.810416 0.0334485
upperback -4.29431 1.04755 -0.446448
thorax -11.3012 0.476476 -0.727068
lowerneck -5.58354 1.34385 4.45976
upperneck 17.8319 2.74744 -8.25526
head 6.48362 0.98889 -3.1946
rclavicle 5.43552e-015 -1.98785e-015
rhumerus 18.8075 13.8921 -48.4722
rradius 71.1885
rwrist 26.1784
rhand -33.3618 -52.7303
rfingers 7.12502
rthumb -6.56348 -82.6086
lclavicle 5.43552e-015 -1.98785e-015
lhumerus 18.9487 -12.3842 45.5602
lradius 69.4982
lwrist -22.0398
lhand -44.2663 -67.6306
lfingers 7.12502
lthumb -17.0775 -38.3612
rfemur -24.0096 -2.03144 17.3701
rtibia 54.6556
rfoot -28.0986 -16.3459
rtoes -17.558
lfemur -25.8787 2.47124 -17.8557
ltibia 54.0155
lfoot -30.2486 -3.77862
ltoes -21.4543
42
root 9.74082 14.572 -15.0754 1.14623 -3.52539 1.66367
lowerback 11.7797 0.811505 0.0789636
upperback -4.27079 1.05711 -0.440986
thorax -11.2603 0.478282 -0.74809
lowerneck -5.60126 1.35511 4.43289
upperneck 17.8062 2.7578 -8.21871
head 6.4787 0.994918 -3.17697
rclavicle -9.50439e-016 1.78906e-015
rhumerus 18.8187 13.8571 -48.5132
rradius 71.2303
rwrist 26.2142
rhand -33.2808 -52.9965
rfingers 7.12502
rthumb -6.48532 -82.8772
lclavicle -9.50439e-016 1.78906e-015
lhumerus 18.9003 -12.356 45.5552
lradius 69.4984
lwrist -21.8855
lhand -44.5147 -67.7978
lfingers 7.12502
lthumb -17.3166 -38.5492
rfemur -23.9995 -1.99719 17.393
rtibia 54.652
rfoot -28.1225 -16.2624
rtoes -17.0639
lfemur -25.8685 2.45951 -17.8288
ltibia 54.0145
lfoot -30.2483 -3.8832
ltoes -21.0675
43
root 9.7423 14.5682 -15.0776 1.1195 -3.55388 1.63554
lowerback 11.8229 0.817745 0.103048
upperback -4.25199 1.07098 -0.426109
thorax -11.2647 0.483777 -0.749037
lowerneck -5.69569 1.3866 4.36486
upperneck 17.8429 2.79728 -8.14862
head 6.50838 1.01231 -3.13992
rclavicle -6.49156e-015 -2.38542e-015
rhumerus 18.8453 13.8553 -48.5314
rradius 71.2804
rwrist 26.1551
rhand -33.297 -53.1566
rfingers 7.12502
rthumb -6.50093 -83.0368
lclavicle -6.49156e-015 -2.38542e-015
lhumerus 18.8855 -12.2881 45.5776
lradius 69.4401
lwrist -21.7237
lhand -44.4904 -67.5977
lfingers 7.12502
lthumb -17.2933 -38.3471
rfemur -23.9829 -1.93474 17.4263
rtibia 54.6393
rfoot -28.0735 -16.2966
rtoes -17.0763
lfemur -25.841 2.47536 -17.7992
ltibia 54.0133
lfoot -30.2726 -3.90566
ltoes -20.9185
44
root 9.74316 14.5717 -15.0793 1.07983 -3.57998 1.61094
lowerback 11.8523 0.837446 0.112787
upperback -4.24019 1.10032 -0.413995
thorax -11.2687 0.497555 -0.748042
lowerneck -5.69394 1.36239 4.32089
upperneck 17.8379 2.76405 -8.12012
head 6.50342 0.995669 -3.1256
rclavicle -8.01351e-016 -4.96962e-015
rhumerus 18.8135 13.8353 -48.543
rradius 71.275
rwrist 26.0857
rhand -33.407 -53.1215
rfingers 7.12502
rthumb -6.60715 -82.9984
lclavicle -8.01351e-016 -4.96962e-015
lhumerus 18.9486 -12.2188 45.7288
lradius 69.3077
lwrist -21.5426
lhand -44.3969 -67.8669
lfingers 7.12502
lthumb -17.2032 -38.6084
rfemur -23.9289 -1.89759 17.4552
rtibia 54.6078
rfoot -27.991 -16.4241
rtoes -17.6204
lfemur -25.7962 2.49652 -17.7765
ltibia 54.0022
lfoot -30.2756 -3.79953
ltoes -21.2257
45
root 9.74444 14.5773 -15.0791 1.07727 -3.56565 1.64015
lowerback 11.81 0.847672 0.0903231
upperback -4.24728 1.10819 -0.435045
thorax -11.2513 0.502121 -0.759164
lowerneck -5.54842 1.32012 4.41712
upperneck 17.7289 2.70782 -8.21764
head 6.44114 0.972125 -3.17667
rclavicle -1.15544e-014 7.15625e-015
rhumerus 18.7191 13.7845 -48.6228
rradius 71.258
rwrist 26.1379
rhand -33.3801 -53.0901
rfingers 7.12502
rthumb -6.58118 -82.9678
lclavicle -1.15544e-014 7.15625e-015
lhumerus 18.9841 -12.1302 45.9601
lradius 69.1771
lwrist -21.5685
lhand -44.4908 -68.3381
lfingers 7.12502
lthumb -17.2936 -39.0875
rfemur -23.901 -1.92991 17.4157
rtibia 54.5813
rfoot -28.0292 -16.4303
rtoes -17.7076
lfemur -25.781 2.48074 -17.8214
ltibia 53.9763
lfoot -30.2371 -3.64805
ltoes -21.5209
46
root 9.74625 14.5801 -15.0782 1.11078 -3.56638 1.69955
lowerback 11.746 0.850788 0.0540339
upperback -4.2477 1.10256 -0.472612
thorax -11.2135 0.500667 -0.776985
lowerneck -5.48388 1.322 4.56953
upperneck 17.6376 2.71125 -8.352
head 6.40394 0.976288 -3.2448
rclavicle 1.32502e-014 1.78906e-015
rhumerus 18.6994 13.7468 -48.6844
rradius 71.2453
rwrist 26.1707
rhand -33.3016 -53.1041
rfingers 7.12502
rthumb -6.50534 -82.9842
lclavicle 1.32502e-014 1.78906e-015
lhumerus 18.9233 -12.0473 46.0793
lradius 69.1443
lwrist -21.5658
lhand -44.5555 -68.6322
lfingers 7.12502
lthumb -17.3559 -39.3871
rfemur -23.9297 -1.94045 17.3387
rtibia 54.5695
rfoot -28.0965 -16.3696
rtoes -17.4784
lfemur -25.7899 2.46569 -17.9033
ltibia 53.9314
lfoot -30.2338 -3.57962
ltoes -21.5922
47
root 9.74833 14.5778 -15.0777 1.0956 -3.55163 1.73851
lowerback 11.7513 0.862043 0.0624557
upperback -4.20601 1.11425 -0.518398
thorax -11.1686 0.50396 -0.833319
lowerneck -5.64784 1.30549 4.62952
upperneck 17.6823 2.68061 -8.35824
head 6.44568 0.960672 -3.2595
rclavicle 9.51682e-015 3.67752e-015
rhumerus 18.6901 13.6461 -48.7052
rradius 71.2327
rwrist 26.1302
rhand -33.4029 -53.2548
rfingers 7.12502
rthumb -6.60322 -83.1319
lclavicle 9.51682e-015 3.67752e-015
lhumerus 18.9481 -11.9968 46.1707
lradius 69.1336
lwrist -21.4971
lhand -44.5425 -68.9582
lfingers 7.12502
lthumb -17.3434 -39.712
rfemur -23.9186 -1.94682 17.2757
rtibia 54.5688
rfoot -28.1374 -16.318
rtoes -17.2107
lfemur -25.7478 2.4214 -17.9578
ltibia 53.876
lfoot -30.2691 -3.60697
ltoes -21.0552
48
root 9.74984 14.5768 -15.0772 1.02828 -3.52692 1.78554
lowerback 11.8153 0.875793 0.0676469
upperback -4.16361 1.12743 -0.575901
thorax -11.1577 0.507438 -0.902013
lowerneck -5.81469 1.26054 4.66337
upperneck 17.7835 2.61517 -8.35263
head 6.50298 0.926625 -3.26942
rclavicle 3.07495e-015 -1.39149e-015
rhumerus 18.618 13.5146 -48.8031
rradius 71.2316
rwrist 26.1481
rhand -33.4845 -53.4044
rfingers 7.12502
rthumb -6.68196 -83.279
lclavicle 3.07495e-015 -1.39149e-015
lhumerus 19.045 -11.9087 46.3278
lradius 69.1044
lwrist -21.5899
lhand -44.497 -69.2173
lfingers 7.12502
lthumb -17.2996 -39.9672
rfemur -23.84 -1.9679 17.2065
rtibia 54.5532
rfoot -28.1201 -16.2677
rtoes -17.1873
lfemur -25.6455 2.36553 -18.0154
ltibia 53.8132
lfoot -30.2548 -3.63507
ltoes -20.5579
